<svg viewBox="-203.28092287409365 -99.538977426834 478.01263019116686 179.34950887717835" xmlns="http://www.w3.org/2000/svg" xmlns:xlink="http://www.w3.org/1999/xlink" version="1.1" class="jsx-2263963463 artboard-inner" style="width: 200px; height: 75.0397px; max-height: 100%;"><g transform="translate(-8.767303889255109 44.68160843770599) scale(1.8750457774848017)" fill="#000000"><g id="line1"><path d="M45.070-25.207C45.070-27.527 44.771-29.760 44.174-31.904C43.576-34.049 42.727-36.053 41.625-37.916C40.524-39.779 39.211-41.479 37.688-43.014C36.164-44.549 34.465-45.867 32.590-46.969C30.715-48.070 28.705-48.920 26.561-49.518C24.416-50.115 22.184-50.414 19.863-50.414L4.676-50.414L4.676 0L19.863 0C22.184 0 24.416-0.299 26.561-0.896C28.705-1.494 30.715-2.344 32.590-3.445C34.465-4.547 36.164-5.865 37.688-7.400C39.211-8.936 40.523-10.635 41.625-12.498C42.727-14.361 43.576-16.365 44.174-18.510C44.771-20.654 45.070-22.887 45.070-25.207ZM34.980-25.207C34.980-23.121 34.588-21.158 33.803-19.318C33.018-17.479 31.939-15.873 30.568-14.502C29.197-13.131 27.592-12.053 25.752-11.268C23.912-10.482 21.949-10.090 19.863-10.090L14.836-10.090L14.836-40.324L19.863-40.324C21.949-40.324 23.912-39.926 25.752-39.129C27.592-38.332 29.197-37.248 30.568-35.877C31.939-34.506 33.018-32.906 33.803-31.078C34.588-29.250 34.980-27.293 34.980-25.207Z"></path><path d="M63.547-9.211L81.547-30.902C80.656-32.168 79.625-33.311 78.453-34.330C77.281-35.350 76.022-36.211 74.674-36.914C73.326-37.617 71.903-38.156 70.403-38.531C68.903-38.906 67.367-39.094 65.797-39.094C63.149-39.094 60.658-38.613 58.326-37.652C55.994-36.691 53.955-35.344 52.209-33.609C50.463-31.875 49.086-29.777 48.078-27.316C47.070-24.855 46.567-22.137 46.567-19.160C46.567-16.254 47.070-13.588 48.078-11.162C49.086-8.736 50.463-6.645 52.209-4.887C53.955-3.129 55.994-1.758 58.326-0.773C60.658 0.211 63.149 0.703 65.797 0.703C67.367 0.703 68.897 0.521 70.385 0.158C71.873-0.205 73.291-0.738 74.639-1.441C75.986-2.145 77.240-3.000 78.401-4.008C79.561-5.016 80.586-6.152 81.477-7.418L74.445-14.484C74.070-13.641 73.584-12.873 72.986-12.182C72.389-11.490 71.709-10.904 70.947-10.424C70.186-9.943 69.371-9.574 68.504-9.316C67.637-9.059 66.735-8.930 65.797-8.930C65.422-8.930 65.047-8.947 64.672-8.982C64.297-9.018 63.922-9.094 63.547-9.211ZM68.469-29.004L57.289-14.168C57.102-14.496 56.949-14.871 56.832-15.293C56.715-15.715 56.615-16.154 56.533-16.611C56.451-17.068 56.393-17.520 56.358-17.965C56.322-18.410 56.305-18.809 56.305-19.160C56.305-20.730 56.551-22.143 57.043-23.396C57.535-24.650 58.209-25.723 59.065-26.613C59.920-27.504 60.928-28.189 62.088-28.670C63.248-29.150 64.485-29.391 65.797-29.391C66.266-29.391 66.717-29.367 67.151-29.320C67.584-29.273 68.024-29.168 68.469-29.004Z"></path><path d="M121.891-19.160C121.891-22.043 121.387-24.697 120.379-27.123C119.371-29.549 118.000-31.652 116.266-33.434C114.532-35.215 112.498-36.604 110.166-37.600C107.834-38.596 105.332-39.094 102.660-39.094C101.793-39.094 100.903-39.006 99.989-38.830C99.075-38.654 98.190-38.402 97.334-38.074C96.479-37.746 95.682-37.324 94.944-36.809C94.205-36.293 93.578-35.707 93.063-35.051L93.063-52.629L83.430-52.629L83.430-19.160C83.430-16.254 83.934-13.588 84.942-11.162C85.950-8.736 87.326-6.645 89.073-4.887C90.819-3.129 92.858-1.758 95.190-0.773C97.522 0.211 100.012 0.703 102.660 0.703C105.332 0.703 107.834 0.223 110.166-0.738C112.498-1.699 114.532-3.053 116.266-4.799C118.000-6.545 119.371-8.637 120.379-11.074C121.387-13.512 121.891-16.207 121.891-19.160ZM112.223-19.160C112.223-17.707 111.971-16.359 111.467-15.117C110.963-13.875 110.278-12.797 109.410-11.883C108.543-10.969 107.530-10.248 106.369-9.721C105.209-9.193 103.973-8.930 102.660-8.930C101.348-8.930 100.112-9.193 98.951-9.721C97.791-10.248 96.778-10.969 95.910-11.883C95.043-12.797 94.364-13.875 93.871-15.117C93.379-16.359 93.133-17.707 93.133-19.160C93.133-20.473 93.379-21.744 93.871-22.975C94.364-24.205 95.043-25.295 95.910-26.244C96.778-27.193 97.791-27.955 98.951-28.529C100.112-29.104 101.348-29.391 102.660-29.391C103.973-29.391 105.209-29.133 106.369-28.617C107.530-28.102 108.543-27.387 109.410-26.473C110.278-25.559 110.963-24.475 111.467-23.221C111.971-21.967 112.223-20.613 112.223-19.160Z"></path><path d="M143.918 0L151.196 0L151.196-9.563L143.918-9.563C142.911-9.563 141.961-9.756 141.071-10.143C140.180-10.529 139.407-11.051 138.750-11.707C138.094-12.363 137.579-13.131 137.204-14.010C136.829-14.889 136.641-15.832 136.641-16.840L136.641-28.020L151.196-28.020L151.196-37.582L136.641-37.582L136.641-52.629L127.079-52.629L127.079-37.582L122.403-37.582L122.403-28.020L127.079-28.020L127.079-16.840C127.079-14.520 127.518-12.340 128.397-10.301C129.276-8.262 130.483-6.475 132.018-4.939C133.553-3.404 135.340-2.197 137.379-1.318C139.418-0.439 141.598 0 143.918 0Z"></path></g></g><g transform="translate(-207.79048107173776 -99.53862443807373) scale(1.7935095931676022)" id="logomark"><g fill="#000000"><path d="M37.039 20.894h26.345l2.408-3.436c1.967-2.965 4.134-5.805 6.009-8.83.89-1.437 2.558-3.789 1.901-5.609-.469-1.3-1.669-1.743-2.955-1.969-.93-.163-5.684-1.364-7.603-.972-1.703.349-3.276 1.157-4.91 1.725-2.301.8-4.848 1.471-7.372 1.333-2.181-.119-4.659-.398-6.715-1.141-1.704-.617-3.35-1.525-5.153-1.834-1.557-.267-7.228.519-8.369.715-8.031 1.382-2.192 7.493 4.006 16.582l2.408 3.436zm58.042 48.181c-6.754-15.562-18.983-32.532-31.794-40.719h-26.58C23.899 36.545 11.672 53.516 4.92 69.075c-6.77 15.598 1.351 30.924 16.825 30.924h56.511c15.474 0 23.595-15.326 16.825-30.924zM52.47 83.203v6.316h-5.029v-5.948c-3.863-.122-7.726-1.226-9.935-2.698l1.657-5.765c2.392 1.411 5.826 2.698 9.567 2.698 3.863 0 6.5-1.901 6.5-4.844 0-2.76-2.147-4.539-6.685-6.194-6.44-2.331-10.61-5.274-10.61-10.978 0-5.274 3.679-9.321 9.873-10.425v-6.01h5.029v5.703c3.863.123 6.5 1.042 8.463 2.024l-1.655 5.641c-1.473-.675-4.171-2.085-8.341-2.085-4.292 0-5.825 2.208-5.825 4.294 0 2.514 2.208 3.923 7.419 6.009 6.869 2.576 9.936 5.888 9.936 11.345 0 5.215-3.618 9.814-10.364 10.917z"></path></g></g></svg>